<svg width="1131" height="251" viewBox="0 0 1131 251" fill="none" xmlns="http://www.w3.org/2000/svg">
<g filter="url(#filter0_f_20_132)">
<path fill-rule="evenodd" clip-rule="evenodd" d="M650.473 80.4895L624.411 54.9205L598.645 80.2099L589.608 71.0809L607.01 54.0016C610.205 50.8554 613.94 48.7679 618.183 47.7491C622.437 46.7304 626.66 46.7503 630.863 47.8091C635.076 48.8678 638.74 50.9353 641.864 54.0016L659.795 71.6003L650.473 80.4895ZM388.277 159.404C385.489 157.746 383.25 155.549 381.551 152.802C379.861 150.065 379.017 147.079 379.017 143.843V107.736C379.017 104.5 379.861 101.514 381.551 98.7773C383.24 96.0406 385.479 93.8432 388.277 92.1752C391.066 90.5173 394.108 89.6883 397.405 89.6883H435.201C438.579 89.6883 441.673 90.5173 444.461 92.1752C447.25 93.8332 449.468 96.0306 451.117 98.7773C452.765 101.514 453.59 104.5 453.59 107.736V135.373H398.413V142.844H453.59V161.891H397.395C394.098 161.891 391.055 161.062 388.267 159.404H388.277ZM398.423 118.693H434.193V108.735H398.423V118.693ZM405.648 82.2173L412.121 56.9479H432.036L425.564 82.2173H405.648ZM330.923 159.404C328.134 157.746 325.896 155.549 324.196 152.802C322.507 150.065 321.662 147.079 321.662 143.843V65.9072H341.201V142.844H356.038V161.891H340.051C336.754 161.891 333.711 161.062 330.923 159.404ZM116.006 72.2595H47V161.881H119.426C122.896 161.881 126.04 161.052 128.88 159.394C131.709 157.736 133.998 155.499 135.728 152.672C137.469 149.856 138.334 146.779 138.334 143.463V124.916C138.334 122.848 137.906 120.771 137.062 118.693C136.207 116.626 135.159 114.798 133.886 113.22C134.232 112.391 134.467 111.502 134.589 110.543C134.721 109.594 134.782 108.576 134.782 107.497V90.6872C134.782 87.2813 133.907 84.1851 132.177 81.4085C130.447 78.6318 128.157 76.4045 125.328 74.7465C122.499 73.0885 119.385 72.2595 116.006 72.2595ZM114.867 91.676V106.618H66.6609V91.676H114.867ZM118.418 126.044V142.475H66.6609V126.044H118.418ZM578.953 99.5364L552.423 125.575L577.722 150.405L568.421 159.274L551.507 142.674C548.383 139.608 546.297 135.992 545.259 131.827C544.221 127.662 544.221 123.487 545.259 119.322C546.297 115.158 548.383 111.542 551.507 108.476L569.917 90.4075L578.953 99.5364ZM268.5 152.802C270.2 155.549 272.439 157.746 275.227 159.404C278.015 161.062 281.058 161.891 284.355 161.891H300.343V142.844H285.505V65.9072H265.967V143.843C265.967 147.079 266.811 150.065 268.5 152.802ZM165.108 152.802C166.807 155.549 169.046 157.746 171.834 159.404H171.824C174.613 161.062 177.655 161.891 180.953 161.891H237.147V142.844H181.97V135.373H237.147V107.736C237.147 104.5 236.323 101.514 234.674 98.7773C233.025 96.0306 230.807 93.8332 228.019 92.1752C225.23 90.5173 222.137 89.6883 218.758 89.6883H180.963C177.666 89.6883 174.623 90.5173 171.834 92.1752C169.036 93.8432 166.797 96.0406 165.108 98.7773C163.419 101.514 162.574 104.5 162.574 107.736V143.843C162.574 147.079 163.419 150.065 165.108 152.802ZM217.751 118.693H181.98V108.735H217.751V118.693ZM195.678 56.9479L189.206 82.2173H209.121L215.593 56.9479H195.678ZM481.646 161.891V107.737C481.646 104.5 482.491 101.514 484.18 98.7774C485.869 96.0407 488.108 93.8433 490.907 92.1753C493.695 90.5173 496.778 89.6884 500.167 89.6884H540.761V108.735H501.063V161.891H481.656H481.646ZM712.173 89.6884V190.526H731.58V161.891H768.367C771.746 161.891 774.84 161.062 777.628 159.404C780.416 157.736 782.635 155.539 784.283 152.802C785.932 150.065 786.756 147.079 786.756 143.843V107.737C786.756 104.5 785.932 101.524 784.283 98.7774C782.635 96.0307 780.416 93.8333 777.628 92.1753C774.84 90.5173 771.746 89.6884 768.367 89.6884H712.173ZM767.35 108.735V142.844H731.58V108.735H767.35ZM811.129 161.891V66.037H830.535V89.6884H867.323C870.62 89.6884 873.663 90.5174 876.462 92.1754C879.25 93.8333 881.489 96.0307 883.188 98.7774C884.878 101.514 885.722 104.5 885.722 107.737V161.891H866.316V108.735H830.546V161.891H811.139H811.129ZM912.741 152.802C914.44 155.549 916.679 157.746 919.467 159.404C922.266 161.062 925.309 161.891 928.606 161.891H966.401C969.78 161.891 972.873 161.062 975.662 159.404C978.45 157.736 980.668 155.539 982.317 152.802C983.966 150.065 984.79 147.079 984.79 143.843V107.737C984.79 104.5 983.966 101.514 982.317 98.7774C980.668 96.0307 978.45 93.8333 975.662 92.1753C972.873 90.5173 969.78 89.6884 966.401 89.6884H928.606C925.298 89.6884 922.256 90.5173 919.467 92.1753C916.669 93.8433 914.43 96.0407 912.741 98.7774C911.051 101.514 910.207 104.5 910.207 107.737V143.843C910.207 147.079 911.051 150.065 912.741 152.802ZM965.383 108.735V142.844H929.613V108.735H965.383ZM1009.42 161.891V89.6884H1065.61C1068.99 89.6884 1072.08 90.5173 1074.87 92.1753C1077.66 93.8333 1079.88 96.0307 1081.53 98.7774C1083.18 101.524 1084 104.5 1084 107.737V161.891H1064.59V108.735H1028.82V161.891H1009.42ZM642.291 142.604V125.805L661.698 126.074V143.603C661.698 146.839 660.874 149.826 659.225 152.562C657.576 155.309 655.358 157.506 652.57 159.164C649.781 160.822 646.688 161.651 643.309 161.651H623.882L624.157 142.604H642.291ZM642.291 108.496V125.805L661.698 126.074V107.497C661.698 104.261 660.874 101.274 659.225 98.5376C657.576 95.8009 655.358 93.6036 652.57 91.9356C649.781 90.2776 646.688 89.4486 643.309 89.4486H624.941L624.666 108.496H642.291ZM624.656 108.496H606.521V125.295L587.115 125.026V107.497C587.115 104.261 587.959 101.274 589.649 98.5376C591.348 95.7909 593.587 93.5936 596.375 91.9356C599.164 90.2776 602.206 89.4486 605.504 89.4486H624.93L624.656 108.496ZM606.521 142.614V125.305L587.115 125.036V143.613C587.115 146.849 587.959 149.836 589.649 152.572C591.338 155.309 593.577 157.506 596.375 159.174C599.164 160.832 602.206 161.661 605.504 161.661H623.872L624.147 142.614H606.521ZM598.329 170.63L624.401 196.219L650.188 170.91L659.205 180.019L641.803 197.098C638.679 200.165 634.995 202.212 630.751 203.231C626.508 204.25 622.254 204.25 618.01 203.231C613.767 202.212 610.083 200.165 606.959 197.098L589.028 179.5L598.329 170.63ZM703.625 119.223C702.546 115.098 700.44 111.492 697.315 108.426L680.402 91.8258L671.081 100.715L696.41 125.575L669.9 151.593L678.916 160.702L697.326 142.634C700.531 139.488 702.658 135.833 703.696 131.668C704.734 127.503 704.714 123.348 703.635 119.223H703.625Z" fill="url(#paint0_linear_20_132)"/>
</g>
<g clip-path="url(#clip0_20_132)">
<path fill-rule="evenodd" clip-rule="evenodd" d="M651.01 80.53L625.4 54.93L600.08 80.25L591.2 71.11L608.3 54.01C611.44 50.86 615.11 48.77 619.28 47.75C623.46 46.73 627.61 46.75 631.74 47.81C635.88 48.87 639.48 50.94 642.55 54.01L660.17 71.63L651.01 80.53ZM393.36 159.54C390.62 157.88 388.42 155.68 386.75 152.93C385.09 150.19 384.26 147.2 384.26 143.96V107.81C384.26 104.57 385.09 101.58 386.75 98.84C388.41 96.1 390.61 93.9 393.36 92.23C396.1 90.57 399.09 89.74 402.33 89.74H439.47C442.79 89.74 445.83 90.57 448.57 92.23C451.31 93.89 453.49 96.09 455.11 98.84C456.73 101.58 457.54 104.57 457.54 107.81V135.48H403.32V142.96H457.54V162.03H402.32C399.08 162.03 396.09 161.2 393.35 159.54H393.36ZM403.33 118.78H438.48V108.81H403.33V118.78ZM410.43 82.26L416.79 56.96H436.36L430 82.26H410.43ZM337 159.54C334.26 157.88 332.06 155.68 330.39 152.93C328.73 150.19 327.9 147.2 327.9 143.96V65.9301H347.1V142.96H361.68V162.03H345.97C342.73 162.03 339.74 161.2 337 159.54ZM125.81 72.29H58V162.02H129.17C132.58 162.02 135.67 161.19 138.46 159.53C141.24 157.87 143.49 155.63 145.19 152.8C146.9 149.98 147.75 146.9 147.75 143.58V125.01C147.75 122.94 147.33 120.86 146.5 118.78C145.66 116.71 144.63 114.88 143.38 113.3C143.72 112.47 143.95 111.58 144.07 110.62C144.2 109.67 144.26 108.65 144.26 107.57V90.74C144.26 87.33 143.4 84.23 141.7 81.45C140 78.67 137.75 76.44 134.97 74.78C132.19 73.12 129.13 72.29 125.81 72.29ZM124.69 91.73V106.69H77.32V91.73H124.69ZM128.18 126.14V142.59H77.32V126.14H128.18ZM580.73 99.6L554.66 125.67L579.52 150.53L570.38 159.41L553.76 142.79C550.69 139.72 548.64 136.1 547.62 131.93C546.6 127.76 546.6 123.58 547.62 119.41C548.64 115.24 550.69 111.62 553.76 108.55L571.85 90.46L580.73 99.6ZM275.66 152.93C277.33 155.68 279.53 157.88 282.27 159.54C285.01 161.2 288 162.03 291.24 162.03H306.95V142.96H292.37V65.9301H273.17V143.96C273.17 147.2 274 150.19 275.66 152.93ZM174.06 152.93C175.73 155.68 177.93 157.88 180.67 159.54H180.66C183.4 161.2 186.39 162.03 189.63 162.03H244.85V142.96H190.63V135.48H244.85V107.81C244.85 104.57 244.04 101.58 242.42 98.84C240.8 96.09 238.62 93.89 235.88 92.23C233.14 90.57 230.1 89.74 226.78 89.74H189.64C186.4 89.74 183.41 90.57 180.67 92.23C177.92 93.9 175.72 96.1 174.06 98.84C172.4 101.58 171.57 104.57 171.57 107.81V143.96C171.57 147.2 172.4 150.19 174.06 152.93ZM225.79 118.78H190.64V108.81H225.79V118.78ZM485.11 162.03V107.81C485.11 104.57 485.94 101.58 487.6 98.84C489.26 96.1 491.46 93.9 494.21 92.23C496.95 90.57 499.98 89.74 503.31 89.74H543.2V108.81H504.19V162.03H485.12H485.11ZM711.64 89.74V190.7H730.71V162.03H766.86C770.18 162.03 773.22 161.2 775.96 159.54C778.7 157.87 780.88 155.67 782.5 152.93C784.12 150.19 784.93 147.2 784.93 143.96V107.81C784.93 104.57 784.12 101.59 782.5 98.84C780.88 96.09 778.7 93.89 775.96 92.23C773.22 90.57 770.18 89.74 766.86 89.74H711.64ZM765.86 108.81V142.96H730.71V108.81H765.86ZM808.88 162.03V66.0601H827.95V89.7401H864.1C867.34 89.7401 870.33 90.5701 873.08 92.2301C875.82 93.8901 878.02 96.0901 879.69 98.8401C881.35 101.58 882.18 104.57 882.18 107.81V162.03H863.11V108.81H827.96V162.03H808.89H808.88ZM908.73 152.93C910.4 155.68 912.6 157.88 915.34 159.54C918.09 161.2 921.08 162.03 924.32 162.03H961.46C964.78 162.03 967.82 161.2 970.56 159.54C973.3 157.87 975.48 155.67 977.1 152.93C978.72 150.19 979.53 147.2 979.53 143.96V107.81C979.53 104.57 978.72 101.58 977.1 98.84C975.48 96.09 973.3 93.89 970.56 92.23C967.82 90.57 964.78 89.74 961.46 89.74H924.32C921.07 89.74 918.08 90.57 915.34 92.23C912.59 93.9 910.39 96.1 908.73 98.84C907.07 101.58 906.24 104.57 906.24 107.81V143.96C906.24 147.2 907.07 150.19 908.73 152.93ZM960.46 108.81V142.96H925.31V108.81H960.46ZM1003.73 162.03V89.74H1058.95C1062.27 89.74 1065.31 90.57 1068.05 92.23C1070.79 93.89 1072.97 96.09 1074.59 98.84C1076.21 101.59 1077.02 104.57 1077.02 107.81V162.03H1057.95V108.81H1022.8V162.03H1003.73ZM642.97 142.72V125.9V108.57H625.65L625.92 89.5H643.97C647.29 89.5 650.33 90.33 653.07 91.99C655.81 93.66 657.99 95.86 659.61 98.6C661.23 101.34 662.04 104.33 662.04 107.57V126.17V143.72C662.04 146.96 661.23 149.95 659.61 152.69C657.99 155.44 655.81 157.64 653.07 159.3C650.33 160.96 647.29 161.79 643.97 161.79H624.88L625.15 142.72H642.97ZM625.64 108.57H607.82V125.39L588.75 125.12V107.57C588.75 104.33 589.58 101.34 591.24 98.6C592.91 95.85 595.11 93.65 597.85 91.99C600.59 90.33 603.58 89.5 606.82 89.5H625.91L625.64 108.57ZM607.82 142.73V125.4L588.75 125.13V143.73C588.75 146.97 589.58 149.96 591.24 152.7C592.9 155.44 595.1 157.64 597.85 159.31C600.59 160.97 603.58 161.8 606.82 161.8H624.87L625.14 142.73H607.82ZM599.77 170.78L625.39 196.4L650.73 171.06L659.59 180.18L642.49 197.28C639.42 200.35 635.8 202.4 631.63 203.42C627.46 204.44 623.28 204.44 619.11 203.42C614.94 202.4 611.32 200.35 608.25 197.28L590.63 179.66L599.77 170.78ZM703.24 119.31C702.18 115.18 700.11 111.57 697.04 108.5L680.42 91.88L671.26 100.78L696.15 125.67L670.1 151.72L678.96 160.84L697.05 142.75C700.2 139.6 702.29 135.94 703.31 131.77C704.33 127.6 704.31 123.44 703.25 119.31H703.24Z" fill="url(#paint1_linear_20_132)"/>
</g>
<defs>
<filter id="filter0_f_20_132" x="0" y="-0.000244141" width="1131" height="250.995" filterUnits="userSpaceOnUse" color-interpolation-filters="sRGB">
<feFlood flood-opacity="0" result="BackgroundImageFix"/>
<feBlend mode="normal" in="SourceGraphic" in2="BackgroundImageFix" result="shape"/>
<feGaussianBlur stdDeviation="23.5" result="effect1_foregroundBlur_20_132"/>
</filter>
<linearGradient id="paint0_linear_20_132" x1="582.281" y1="203.81" x2="515.503" y2="-98.36" gradientUnits="userSpaceOnUse">
<stop offset="0.244794" stop-color="#001EF5"/>
<stop offset="1" stop-color="#FEFDFF"/>
</linearGradient>
<linearGradient id="paint1_linear_20_132" x1="584" y1="204" x2="516" y2="-98" gradientUnits="userSpaceOnUse">
<stop offset="0.244794" stop-color="#FAF3FF"/>
<stop offset="1" stop-color="#FEFDFF"/>
</linearGradient>
<clipPath id="clip0_20_132">
<rect width="1019.02" height="157.19" fill="white" transform="translate(58 47)"/>
</clipPath>
</defs>
</svg>
